<?xml version="1.0" encoding="utf-8"?>
<!-- Generator: Adobe Illustrator 18.0.0, SVG Export Plug-In . SVG Version: 6.00 Build 0)  -->
<!DOCTYPE svg PUBLIC "-//W3C//DTD SVG 1.1//EN" "http://www.w3.org/Graphics/SVG/1.1/DTD/svg11.dtd">
<svg version="1.1" id="info-filled" xmlns="http://www.w3.org/2000/svg" xmlns:xlink="http://www.w3.org/1999/xlink" x="0px"
	 y="0px" width="52px" height="52px" viewBox="0 0 52 52" enable-background="new 0 0 52 52" xml:space="preserve">
<path fill="#006fcf" id="info-filled_1_" d="M26,2C12.74518,2,2,12.74518,2,26s10.74518,24,24,24s24-10.745178,24-24S39.254822,2,26,2z
	 M27.5,35.375c0,0.828121-0.671881,1.5-1.5,1.5s-1.5-0.671879-1.5-1.5v-14c0-0.828609,0.671881-1.5,1.5-1.5s1.5,0.671391,1.5,1.5
	V35.375z M26,18.125c-0.96649,0-1.75-0.78351-1.75-1.75s0.78351-1.75,1.75-1.75s1.75,0.78351,1.75,1.75S26.96649,18.125,26,18.125z"
	/>
</svg>
