<?xml version="1.0" encoding="utf-8"?>
<!-- Generator: Adobe Illustrator 18.0.0, SVG Export Plug-In . SVG Version: 6.00 Build 0)  -->
<!DOCTYPE svg PUBLIC "-//W3C//DTD SVG 1.1//EN" "http://www.w3.org/Graphics/SVG/1.1/DTD/svg11.dtd">
<svg version="1.1" id="warning-filled" xmlns="http://www.w3.org/2000/svg" xmlns:xlink="http://www.w3.org/1999/xlink" x="0px"
	 y="0px" width="52px" height="52px" viewBox="0 0 52 52" enable-background="new 0 0 52 52" xml:space="preserve">
<path fill="#F89922" id="warning-filled_1_" d="M47.788448,37.216549l-8.938961-13.577511l-8.9389-13.57745C29.060671,8.77069,27.598749,8,26,8
	s-3.060669,0.77069-3.910521,2.06158l-8.93896,13.577451l-8.9389,13.577389c-0.94421,1.43433-0.94421,3.28772,0,4.72192
	C5.06152,43.229309,6.52344,44,8.12219,44H26h17.877808c1.598751,0,3.060669-0.770691,3.91058-2.061581
	C48.732601,40.50415,48.732601,38.650761,47.788448,37.216549z M24.5,17.5c0-0.828609,0.671881-1.5,1.5-1.5s1.5,0.671391,1.5,1.5v14
	c0,0.828121-0.671881,1.5-1.5,1.5s-1.5-0.671879-1.5-1.5V17.5z M26,38.25c-0.96649,0-1.75-0.783508-1.75-1.75
	s0.78351-1.75,1.75-1.75s1.75,0.783508,1.75,1.75S26.96649,38.25,26,38.25z"/>
</svg>
