<?xml version="1.0" encoding="utf-8"?>
<!-- Generator: Adobe Illustrator 18.0.0, SVG Export Plug-In . SVG Version: 6.00 Build 0)  -->
<!DOCTYPE svg PUBLIC "-//W3C//DTD SVG 1.1//EN" "http://www.w3.org/Graphics/SVG/1.1/DTD/svg11.dtd">
<svg version="1.1" id="cancel-circle-filled" xmlns="http://www.w3.org/2000/svg" xmlns:xlink="http://www.w3.org/1999/xlink"
	 x="0px" y="0px" width="52px" height="52px" viewBox="0 0 52 52" enable-background="new 0 0 52 52" xml:space="preserve">
<path fill="#CA3928" id="cancel-circle-filled_1_" d="M42.970558,9.02944c-9.37257-9.37257-24.56855-9.37257-33.94112,0
	s-9.37257,24.568552,0,33.941116s24.56855,9.37257,33.94112,0S52.34314,18.40201,42.970558,9.02944z M32.36396,34.485279
	L26,28.121321l-6.36396,6.363958c-0.585569,0.585571-1.535749,0.585571-2.121321,0c-0.585569-0.585579-0.585569-1.535751,0-2.121319
	L23.878679,26l-6.36396-6.36396c-0.585569-0.585569-0.58592-1.5354,0-2.121321s1.535749-0.585569,2.121321,0L26,23.878679
	l6.36396-6.36396c0.585918-0.58592,1.535751-0.585569,2.121319,0c0.585571,0.585569,0.585918,1.5354,0,2.121321L28.121321,26
	l6.363958,6.36396c0.585571,0.585579,0.585918,1.5354,0,2.121319S32.949539,35.07085,32.36396,34.485279z"/>
</svg>
