<?xml version="1.0" encoding="utf-8"?>
<!-- Generator: Adobe Illustrator 18.0.0, SVG Export Plug-In . SVG Version: 6.00 Build 0)  -->
<!DOCTYPE svg PUBLIC "-//W3C//DTD SVG 1.1//EN" "http://www.w3.org/Graphics/SVG/1.1/DTD/svg11.dtd">
<svg version="1.1" id="success-filled" xmlns="http://www.w3.org/2000/svg" xmlns:xlink="http://www.w3.org/1999/xlink" x="0px"
	 y="0px" width="52px" height="52px" viewBox="0 0 52 52" enable-background="new 0 0 52 52" xml:space="preserve">
<path fill="#4EB748" id="success-filled_1_" d="M26,2C12.74518,2,2,12.74512,2,26c0,13.254822,10.74518,24,24,24s24-10.745178,24-24
	C50,12.74512,39.254822,2,26,2z M34.647461,20.632811l-10.66699,12.666018c-0.29657,0.352169-0.719971,0.533691-1.147089,0.534061
	l-0.00037,0.000118l-0.00037-0.000061l-0.00061,0.000061c0,0-0.001101-0.000549-0.001829-0.000549
	c-0.382811-0.000729-0.765499-0.146671-1.057739-0.4389l-6.33301-6.33301c-0.58594-0.585449-0.58594-1.535641,0-2.12109
	c0.585939-0.585939,1.53516-0.585939,2.12109,0l5.17767,5.17767l9.614319-11.416929
	c0.53418-0.63135,1.479488-0.714359,2.113281-0.18115C35.099609,19.052731,35.18066,19.99902,34.647461,20.632811z"/>
</svg>
